<svg width="178" height="100" viewBox="0 0 178 100" fill="none" xmlns="http://www.w3.org/2000/svg">
<path d="M10.9216 30.047V65.5H168.614V30.047H10.9216ZM166.625 63.5H86.0774V32.047H166.625V63.5Z" fill="#080829"/>
<path d="M19.3036 53.713V41.926H23.3489V50.574H30.4848V53.713H19.3036Z" fill="white"/>
<path d="M46.4331 47.737C46.4331 51.49 44.1042 53.893 38.5643 53.893C33.5326 53.893 30.6806 51.821 30.6806 47.737C30.6806 44.118 33.3994 41.656 38.5643 41.656C43.8099 41.656 46.4331 43.923 46.4331 47.737ZM42.372 47.782C42.372 46.082 41.6699 44.719 38.5494 44.719C35.6974 44.719 34.7707 45.935 34.7707 47.782C34.7707 49.659 35.6209 50.875 38.5624 50.875C41.5227 50.875 42.372 49.584 42.372 47.782Z" fill="white"/>
<path d="M58.9467 53.713L58.8423 52.571C57.4891 53.5422 55.842 54.0096 54.1835 53.893C51.6905 53.893 49.6142 53.142 48.4497 51.626C47.6817 50.5192 47.2939 49.1906 47.3449 47.842C47.3014 46.5217 47.7026 45.2252 48.4835 44.163C49.6619 42.692 51.7979 41.716 54.978 41.716C58.6365 41.716 60.7864 42.842 61.7112 44.734C61.9098 45.1796 62.0263 45.6576 62.0553 46.145H58.185C58.0876 45.8488 57.9061 45.5878 57.6629 45.394C56.8921 44.88 55.9714 44.6422 55.0496 44.719C54.509 44.6531 53.9605 44.7033 53.4407 44.8664C52.9207 45.0295 52.4412 45.3017 52.0336 45.665C51.5709 46.302 51.3536 47.0862 51.422 47.872C51.3684 48.6217 51.5682 49.3677 51.9888 49.989C52.4001 50.3743 52.889 50.6661 53.4222 50.8449C53.9554 51.0236 54.5206 51.0851 55.0795 51.025C56.1896 51.1158 57.2917 50.7715 58.1552 50.064C58.3407 49.8308 58.4685 49.5566 58.5281 49.264H54.3635V46.731H62.1567V53.713H58.9467Z" fill="white"/>
<path d="M79.0439 47.737C79.0439 51.49 76.714 53.893 71.1752 53.893C66.1434 53.893 63.2914 51.821 63.2914 47.737C63.2914 44.118 66.0102 41.656 71.1752 41.656C76.4167 41.656 79.0439 43.923 79.0439 47.737ZM74.9828 47.782C74.9828 46.082 74.2807 44.719 71.1602 44.719C68.3083 44.719 67.3815 45.935 67.3815 47.782C67.3815 49.659 68.2327 50.875 71.1732 50.875C74.1325 50.875 74.9828 49.584 74.9828 47.782Z" fill="white"/>
<path d="M92.8911 53.668V41.881H95.7749V53.668H92.8911Z" fill="#080829"/>
<path d="M110.584 48.743C109.853 49.704 108.595 50.143 106.822 50.154C106.448 50.154 101.491 50.139 101.491 50.139V53.668H98.6687V41.881H106.823C107.476 41.8115 108.137 41.8812 108.762 42.0855C109.387 42.2899 109.962 42.6243 110.45 43.067C111.095 43.9112 111.408 44.9638 111.332 46.025C111.397 46.9902 111.134 47.9491 110.584 48.743ZM108.27 44.9C107.971 44.45 107.328 44.2 106.239 44.2H101.476V47.788H106.208C107.373 47.788 107.986 47.548 108.27 47.082C108.439 46.7537 108.51 46.384 108.479 46.016C108.503 45.6322 108.432 45.2483 108.27 44.9Z" fill="#080829"/>
<path d="M119.648 53.848C114.332 53.848 112.705 51.848 112.705 49.869H115.721C115.721 50.845 117.049 51.581 119.782 51.581C122.499 51.581 123.216 51.1 123.216 50.319C123.216 49.448 122.679 49.178 120.155 48.893C119.658 48.848 118.304 48.683 117.796 48.608C114.216 48.202 112.838 47.136 112.838 45.229C112.838 43.217 114.855 41.701 119.229 41.701C123.978 41.701 125.799 43.578 125.799 45.53H122.816C122.816 44.539 121.696 43.968 119.053 43.968C116.335 43.968 115.754 44.343 115.754 45.079C115.754 45.845 116.35 46.085 119.234 46.43C119.891 46.521 121.354 46.686 121.757 46.73C124.804 47.045 126.177 48.156 126.177 50.123C126.172 52.466 124.082 53.848 119.648 53.848Z" fill="#080829"/>
<path d="M134.669 53.833C130.773 53.833 128.235 52.286 128.235 49.033V41.881H131.086V49.073C131.086 50.56 132.296 51.55 134.789 51.55C137.043 51.55 138.388 50.62 138.388 49.073V41.881H141.21V49.3C141.21 52.257 138.85 53.833 134.669 53.833Z" fill="#080829"/>
<path d="M156.663 53.668V45.8L153.004 53.668H150.228L146.674 45.8V53.668H143.989V41.881H147.627L151.658 50.86L155.779 41.881H159.359V53.668H156.663Z" fill="#080829"/>
</svg>
